<?xml version="1.0" encoding="utf-8"?>
<!-- Generator: Adobe Illustrator 24.1.2, SVG Export Plug-In . SVG Version: 6.00 Build 0)  -->
<svg version="1.1" id="Capa_1" xmlns="http://www.w3.org/2000/svg" xmlns:xlink="http://www.w3.org/1999/xlink" x="0px" y="0px"
	 viewBox="0 0 512 512" style="enable-background:new 0 0 512 512;" xml:space="preserve">
<style type="text/css">
	.st0{fill:#FFCA28;}
	.st1{fill:#FFFFFF;}
</style>
<g>
	<g>
		<circle class="st0" cx="104.7" cy="372.4" r="11.6"/>
	</g>
</g>
<g>
	<g>
		<circle class="st0" cx="395.6" cy="372.4" r="11.6"/>
	</g>
</g>
<g>
	<g>
		<path class="st1" d="M290.9,360.7H173.5c-5.6-33-34.2-58.2-68.8-58.2c-38.5,0-69.8,31.3-69.8,69.8s31.3,69.8,69.8,69.8
			c34.5,0,63.2-25.2,68.8-58.2h117.4c6.4,0,11.6-5.2,11.6-11.6C302.6,365.9,297.4,360.7,290.9,360.7z M104.7,418.9
			c-25.7,0-46.5-20.9-46.5-46.5s20.9-46.5,46.5-46.5s46.5,20.9,46.5,46.5S130.4,418.9,104.7,418.9z"/>
	</g>
</g>
<g>
	<g>
		<path class="st1" d="M498,251.4l-34.3-25.8L430,124.3c-1.6-4.8-6-8-11-8h-81.5c-5.1,0-9.6,3.3-11.1,8.2L274,292.3
			c-2.4,7.5-10.7,11.9-18.2,9.5l-205-64.6c-3.8-1.2-6.8-4.4-7.8-8.3l-19.5-78c-0.2-0.7-0.3-1.5-0.3-2.2c0-5,4.1-9.1,9.1-9.1h220.8
			c12.4,0,24.1-4.8,32.9-13.6l26.1-26.1c4.4-4.4,10.3-6.8,16.5-6.8H349c6.4,0,11.6-5.2,11.6-11.6s-5.2-11.6-11.6-11.6h-20.4
			c-12.4,0-24.1,4.8-32.9,13.6l-26.1,26.1c-4.3,4.3-10.3,6.8-16.5,6.8H32.4C14.5,116.4,0,130.9,0,148.7c0,2.6,0.3,5.2,1,7.8l19.5,78
			c2.9,11.7,11.9,21.2,23.4,24.8L248.7,324c3.7,1.2,7.5,1.8,11.4,1.8c16.6,0,31.1-10.7,36.1-26.5L346,139.6h64.5l27.1,81.5h-23.2
			l3.2-6.4c2.9-5.7,0.5-12.7-5.2-15.6c-5.8-2.9-12.7-0.5-15.6,5.2l-8.4,16.8H349c-6.4,0-11.6,5.2-11.6,11.6
			c0,6.4,5.2,11.6,11.6,11.6h100.9l34.1,25.6c2.9,2.2,4.6,5.7,4.6,9.3V349c0,6.4-5.2,11.6-11.6,11.6h-12.7
			c-5.6-33-34.2-58.2-68.8-58.2c-38.5,0-69.8,31.3-69.8,69.8S357,442,395.5,442c34.5,0,63.2-25.2,68.8-58.2H477
			c19.2,0,34.9-15.7,34.9-34.9v-69.8C512,268.3,506.8,257.9,498,251.4z M395.6,418.9c-25.7,0-46.5-20.9-46.5-46.5
			s20.9-46.5,46.5-46.5c25.7,0,46.5,20.9,46.5,46.5C442.2,398,421.3,418.9,395.6,418.9z"/>
	</g>
</g>
<g>
	<g>
		<path class="st0" d="M93.1,162.9c-6.4,0-11.6,5.2-11.6,11.6v34.9c0,6.4,5.2,11.6,11.6,11.6s11.6-5.2,11.6-11.6v-34.9
			C104.7,168.1,99.5,162.9,93.1,162.9z"/>
	</g>
</g>
<g>
	<g>
		<path class="st0" d="M139.6,162.9c-6.4,0-11.6,5.2-11.6,11.6V221c0,6.4,5.2,11.6,11.6,11.6s11.6-5.2,11.6-11.6v-46.5
			C151.3,168.1,146.1,162.9,139.6,162.9z"/>
	</g>
</g>
<g>
	<g>
		<path class="st0" d="M186.2,162.9c-6.4,0-11.6,5.2-11.6,11.6v58.2c0,6.4,5.2,11.6,11.6,11.6s11.6-5.2,11.6-11.6v-58.2
			C197.8,168.1,192.6,162.9,186.2,162.9z"/>
	</g>
</g>
<g>
	<g>
		<path class="st0" d="M232.7,162.9c-6.4,0-11.6,5.2-11.6,11.6v69.8c0,6.4,5.2,11.6,11.6,11.6s11.6-5.2,11.6-11.6v-69.8
			C244.4,168.1,239.2,162.9,232.7,162.9z"/>
	</g>
</g>
</svg>
