<?xml version="1.0" encoding="utf-8"?>
<!-- Generator: Adobe Illustrator 24.1.2, SVG Export Plug-In . SVG Version: 6.00 Build 0)  -->
<svg version="1.1" id="Capa_1" xmlns="http://www.w3.org/2000/svg" xmlns:xlink="http://www.w3.org/1999/xlink" x="0px" y="0px"
	 viewBox="0 0 512 512" style="enable-background:new 0 0 512 512;" xml:space="preserve">
<style type="text/css">
	.st0{fill:#FFFFFF;stroke:#FFFFFF;stroke-width:10;stroke-miterlimit:10;}
	.st1{fill:#FFCA28;stroke:#FFCA28;stroke-width:10;stroke-miterlimit:10;}
</style>
<path class="st0" d="M469.3,0H59.7C26.8,0,0,26.8,0,59.7v409.6C0,492.9,19.1,512,42.7,512h204.8c9.4,0,17.1-7.6,17.1-17.1V387.5
	l123-123H495c9.4,0,17.1-7.6,17.1-17.1V42.7C512,19.1,492.9,0,469.3,0z M247.5,494.9h-90.3l90.3-90.3V494.9L247.5,494.9z
	 M494.9,247.5h-90.3l90.3-90.3L494.9,247.5L494.9,247.5z M494.9,122.4c0,6.8-2.7,13.3-7.5,18.1L378,250l0,0L250,378l0,0L140.5,487.4
	c-4.8,4.8-11.3,7.5-18.1,7.5H42.7c-14.1,0-25.6-11.5-25.6-25.6V59.7c0-23.6,19.1-42.6,42.7-42.7h409.6c14.1,0,25.6,11.5,25.6,25.6
	L494.9,122.4L494.9,122.4z"/>
<path class="st1" d="M93.9,51.2c-23.6,0-42.7,19.1-42.7,42.7s19.1,42.6,42.7,42.7c23.6,0,42.7-19.1,42.7-42.7
	C136.5,70.3,117.4,51.2,93.9,51.2z M93.9,119.5c-14.1,0-25.6-11.5-25.6-25.6s11.5-25.6,25.6-25.6s25.6,11.5,25.6,25.6
	S108,119.5,93.9,119.5z"/>
<path class="st1" d="M93.9,375.5c-23.6,0-42.7,19.1-42.7,42.7s19.1,42.7,42.7,42.7s42.6-19.1,42.7-42.7
	C136.5,394.6,117.4,375.5,93.9,375.5z M93.9,443.7c-14.1,0-25.6-11.5-25.6-25.6s11.5-25.6,25.6-25.6s25.6,11.5,25.6,25.6
	C119.5,432.3,108,443.7,93.9,443.7z"/>
<path class="st1" d="M418.1,51.2c-23.6,0-42.7,19.1-42.7,42.7s19.1,42.6,42.7,42.7c23.6,0,42.7-19.1,42.7-42.7
	S441.7,51.2,418.1,51.2z M418.1,119.5c-14.1,0-25.6-11.5-25.6-25.6s11.5-25.6,25.6-25.6s25.6,11.5,25.6,25.6
	S432.3,119.5,418.1,119.5z"/>
</svg>
