<svg xmlns="http://www.w3.org/2000/svg" viewBox="0 0 360 512"><defs><style>.cls-1{fill:#e6c02e;}</style></defs><title>loc-icon</title><g id="Слой_2" data-name="Слой 2"><g id="Capa_1" data-name="Capa 1"><path class="cls-1" d="M180,0C80.75,0,0,80.75,0,180a179.62,179.62,0,0,0,26.87,94.65L169.75,504.91A15,15,0,0,0,182.5,512h.12a15,15,0,0,0,12.75-7.29L334.61,272.22A179.79,179.79,0,0,0,360,180C360,80.75,279.25,0,180,0ZM308.87,256.82,182.27,468.19,52.37,258.85A149.82,149.82,0,0,1,29.8,180C29.8,97.29,97.29,29.8,180,29.8S330.1,97.29,330.1,180A149.87,149.87,0,0,1,308.87,256.82Z"/><path class="cls-1" d="M271.13,179.93A91.13,91.13,0,1,1,180,88.81a90.24,90.24,0,0,1,73.55,37.58L180,199.93l-56.5-56.64L103.77,163,180,239.25l19.73-19.73,67.1-67.24A89.61,89.61,0,0,1,271.13,179.93Z"/></g></g></svg>