<svg xmlns="http://www.w3.org/2000/svg" viewBox="0 0 477.2 520"><defs><style>.cls-1{stroke:#000;stroke-miterlimit:10;stroke-width:8px;}.cls-2{fill:#ffca28;}</style></defs><title>scheme-icon-3</title><g id="Слой_2" data-name="Слой 2"><g id="_1" data-name="1"><path class="cls-1" d="M419.9,516h-256a53.35,53.35,0,0,1-53.3-53.3v-320a53.35,53.35,0,0,1,53.3-53.3h256a53.35,53.35,0,0,1,53.3,53.3v320A53.28,53.28,0,0,1,419.9,516Zm-256-405.3a32.09,32.09,0,0,0-32,32v320a32.09,32.09,0,0,0,32,32h256a32.09,32.09,0,0,0,32-32v-320a32.09,32.09,0,0,0-32-32Z"/><path class="cls-1" d="M78.6,452H57.3A53.35,53.35,0,0,1,4,398.7V57.3A53.28,53.28,0,0,1,57.3,4h256a53.35,53.35,0,0,1,53.3,53.3,10.7,10.7,0,0,1-21.4,0,32.09,32.09,0,0,0-32-32H57.2a32.09,32.09,0,0,0-32,32V398.6a32.09,32.09,0,0,0,32,32H78.6a10.7,10.7,0,0,1,0,21.4Z"/><path class="cls-2" d="M377.3,366.7H206.6a10.7,10.7,0,0,1,0-21.4H377.3a10.7,10.7,0,1,1,0,21.4Z"/><path class="cls-2" d="M377.3,452H206.6a10.7,10.7,0,0,1,0-21.4H377.3a10.7,10.7,0,0,1,0,21.4Z"/><path class="cls-2" d="M377.3,281.3H206.6a10.65,10.65,0,1,1,0-21.3H377.3a10.65,10.65,0,1,1,0,21.3Z"/><path class="cls-2" d="M377.3,196H206.6a10.7,10.7,0,0,1,0-21.4H377.3a10.7,10.7,0,1,1,0,21.4Z"/></g></g></svg>