<svg xmlns="http://www.w3.org/2000/svg" viewBox="0 0 344.8 441.6"><defs><style>.cls-1{fill:#eebd27;}</style></defs><title>scheme-icon-2</title><g id="Слой_2" data-name="Слой 2"><g id="Capa_1" data-name="Capa 1"><path class="cls-1" d="M50.4,164H68.8v.1H87.2V164H258.4v.1h18.4V164H296a8.88,8.88,0,0,0,8.8-8.8V116.8A8.88,8.88,0,0,0,296,108H280.8c-8-40-37.6-72.8-76.8-84V8.8A8.88,8.88,0,0,0,195.2,0h-44a8.88,8.88,0,0,0-8.8,8.8V24c-39.2,11.2-68.8,44-76.8,84H50.4a8.88,8.88,0,0,0-8.8,8.8v38.4A8.88,8.88,0,0,0,50.4,164Zm8-37.6H72.8a7.26,7.26,0,0,0,5.6-2.4,17.17,17.17,0,0,0,3.2-5.6c4-34.4,28-63.2,60-75.2v56a8.8,8.8,0,0,0,17.6,0V17.6h26.4V98.4a8.8,8.8,0,1,0,17.6,0V43.2c32,12,56,40.8,60,75.2a6.73,6.73,0,0,0,3.2,5.6c3.2,2.4,4.8,2.4,6.4,2.4h14.4v20H58.4Z"/><path d="M236.8,282.4c26.4-19.2,42.4-49.6,42.4-81.6a253.18,253.18,0,0,0-2.3-36.4H258.5c1.6,10.3,2.3,22.2,2.3,36.4,0,32.8-19.2,61.6-49.6,76a10.85,10.85,0,0,0-5.6,8.8c0,4,3.2,7.2,7.2,8,64,16,110.4,68.8,114.4,129.6H18.4c4.8-60.8,50.4-113.6,114.4-129.6,4-.8,6.4-4,7.2-8,0-4-1.6-7.2-5.6-8.8-30.4-14.4-49.6-43.2-49.6-76a253.18,253.18,0,0,1,2.3-36.4H68.7a246.8,246.8,0,0,0-2.3,36.4c0,32,16,62.4,42.4,81.6C44,307.2,0,366.4,0,432.8a8.88,8.88,0,0,0,8.8,8.8H336a8.88,8.88,0,0,0,8.8-8.8C344.8,366.4,300.8,307.2,236.8,282.4Z"/></g></g></svg>