<svg xmlns="http://www.w3.org/2000/svg" viewBox="0 0 499 512.1"><defs><style>.cls-1{fill:#ffca28;}</style></defs><title>scheme-icon-5</title><g id="Слой_2" data-name="Слой 2"><g id="Слой_1-2" data-name="Слой 1"><path d="M427.9,136.6H313.4a82.5,82.5,0,0,0,19.3-53.3,83.3,83.3,0,1,0-147.3,53.3H71.2L0,512.1H499ZM249.5,30.1a53.3,53.3,0,1,1-53.3,53.3A53.35,53.35,0,0,1,249.5,30.1ZM96,166.6H403l59.8,315.5H36.2Z"/><path class="cls-1" d="M250.1,264.7H216l-47.6,47.5V264.7H144V384.6h24.5v-41l12.3-12,37.3,53h31.6l-51.4-69.8Z"/><path class="cls-1" d="M298.5,341.4h32.3v13.1a44.91,44.91,0,0,1-10.6,5.5,43.87,43.87,0,0,1-16.6,3.3,40.76,40.76,0,0,1-18.4-4.3,27,27,0,0,1-12.5-12.5c-3-5.9-4.5-13.4-4.5-22.3A53,53,0,0,1,272,304a33.43,33.43,0,0,1,6.1-9.5,27.44,27.44,0,0,1,10-6.7,39.13,39.13,0,0,1,15.3-2.7,32.71,32.71,0,0,1,13.2,2.5,20.73,20.73,0,0,1,8.5,6.1,34,34,0,0,1,5.3,11.6l1.4,4.7,22.5-6.2-1.2-4.7c-2.1-8-5.2-14.7-9.2-19.9a40.33,40.33,0,0,0-17.2-12.3,62.87,62.87,0,0,0-23.4-4.2,66.72,66.72,0,0,0-31.4,7.3,49.66,49.66,0,0,0-21.4,22.9,72.91,72.91,0,0,0-7.2,32.1,69,69,0,0,0,7.3,31.6,51.5,51.5,0,0,0,22.1,22.2,67.39,67.39,0,0,0,31.7,7.5,72.92,72.92,0,0,0,25.2-4.6,86.77,86.77,0,0,0,23.5-13.6l1.9-1.5V318.4l-56.5.1v22.9Z"/></g></g></svg>