<svg xmlns="http://www.w3.org/2000/svg" viewBox="0 0 519.06 518.99"><defs><style>.cls-1{stroke:#000;stroke-miterlimit:10;stroke-width:7px;}.cls-2{fill:#ffca28;}</style></defs><title>scheme-icon-1</title><g id="Слой_2" data-name="Слой 2"><g id="Capa_1" data-name="Capa 1"><path class="cls-1" d="M502,398.49l-103.6-69.1a30.25,30.25,0,0,0-40.5,6.6l-30.2,38.8a12.89,12.89,0,0,1-16.5,3.5l-5.7-3.2c-19-10.4-42.7-23.3-90.5-71s-60.7-71.4-71-90.5l-3.1-5.7a12.88,12.88,0,0,1,3.4-16.6l38.8-30.2a30.27,30.27,0,0,0,6.6-40.5L120.44,17a30,30,0,0,0-40.5-9.2l-43.3,26A61.41,61.41,0,0,0,8.74,70c-15.6,56.9-3.9,155,140.7,299.6,115,115,200.6,145.9,259.5,145.9a151.17,151.17,0,0,0,40.1-5.2,61.41,61.41,0,0,0,36.2-27.9l26.1-43.3A30.28,30.28,0,0,0,502,398.49Zm-5.5,31.9-26,43.3a44.2,44.2,0,0,1-26,20.2c-52.5,14.4-144.2,2.5-283-136.3s-150.8-230.5-136.4-283a44.4,44.4,0,0,1,20.2-26.1l43.3-26a13,13,0,0,1,17.6,4l37.5,56.4,31.5,47.3a13.13,13.13,0,0,1-2.9,17.6L133.54,178a29.8,29.8,0,0,0-7.9,38.3l3.1,5.6c10.9,20,24.5,44.9,74,94.4s74.4,63.1,94.4,74l5.6,3.1a29.78,29.78,0,0,0,38.3-7.9l30.2-38.8a13.23,13.23,0,0,1,17.6-2.9l103.6,69.1A12.85,12.85,0,0,1,496.54,430.39Z"/><path class="cls-2" d="M293.64,88.89A145.28,145.28,0,0,1,438.74,234a8.5,8.5,0,0,0,17,0,162.26,162.26,0,0,0-162.1-162.1,8.5,8.5,0,0,0,0,17Z"/><path class="cls-2" d="M293.64,140.09a94.11,94.11,0,0,1,93.9,93.9,8.5,8.5,0,1,0,17,0c-.1-61.2-49.7-110.9-110.9-110.9a8.49,8.49,0,0,0-8.5,8.5A8.37,8.37,0,0,0,293.64,140.09Z"/><path class="cls-2" d="M293.64,191.29a42.74,42.74,0,0,1,42.7,42.7,8.5,8.5,0,0,0,17,0,59.73,59.73,0,0,0-59.7-59.7,8.5,8.5,0,0,0,0,17Z"/></g></g></svg>