<svg xmlns="http://www.w3.org/2000/svg" viewBox="0 0 480 480"><defs><style>.cls-1{fill:#eebd27;}</style></defs><title>scheme-icon-6</title><g id="Слой_2" data-name="Слой 2"><g id="Слой_1-2" data-name="Слой 1"><path d="M400,345.9l-20.4-12.2A40.18,40.18,0,0,0,359,328H328.3a73,73,0,0,0-18.6,2.4l-92.4,24.8a32.39,32.39,0,0,0-21.8,20.2l-81.3-44a31.83,31.83,0,0,0-21.8-3.6,29.71,29.71,0,0,0-8.1,2.7,30.86,30.86,0,0,0-13.7,12.8,32.19,32.19,0,0,0,11.6,43.6L228,474a40.08,40.08,0,0,0,21.1,6H361.8a39.18,39.18,0,0,0,14.7-2.8l23.5-9.3V480h80V320H400ZM370.6,462.3a24.16,24.16,0,0,1-8.8,1.7H249.1a23.8,23.8,0,0,1-12.7-3.7L90.5,373.1a16,16,0,0,1-8-13.9,17,17,0,0,1,2.1-8,15,15,0,0,1,6.9-6.3,14.41,14.41,0,0,1,4-1.3,15.53,15.53,0,0,1,3.1-.3,15,15,0,0,1,7.8,2.1L194.5,393c.1.5.1,1,.2,1.5a32.08,32.08,0,0,0,30.9,23.7,73.07,73.07,0,0,0,13.2-2.4l83.1-22.2-4.1-15.5L235,400.2c-3.6.8-8.4,1.8-9.3,1.9a16.05,16.05,0,0,1-15.5-11.8,15.67,15.67,0,0,1-.5-3,21.63,21.63,0,0,1,0-2.6,16.13,16.13,0,0,1,11.8-14.1l92.4-24.7a54.46,54.46,0,0,1,14.5-1.9h30.7a24.23,24.23,0,0,1,12.3,3.4L400,364.5v86.2ZM416,336h48V464H416Z"/><path class="cls-1" d="M220.5,135.1c-4.3-3.3-7-8.2-11.4-11.4A31.94,31.94,0,0,1,184,136h-8v64h8a32,32,0,0,1,32,32v8H408v-8a32,32,0,0,1,32-32h8V136h-8a32,32,0,0,1-32-32V96H274.6c3.7,5.6,8.9,10,11.9,16H392.7A48,48,0,0,0,432,151.3v33.3a48,48,0,0,0-39.3,39.3H231.3A48,48,0,0,0,192,184.6V151.3A47.45,47.45,0,0,0,220.5,135.1Z"/><path class="cls-1" d="M330.1,64a101,101,0,0,1-12.3.2h-6.7a40.15,40.15,0,0,1-4.9-.2H242.7l3.3,3.9c1.4,1.5,2.9,2.9,4.4,4.4.8.7,1.5,1.5,2.3,2.2s1.6,1.4,2.4,2.2a20,20,0,0,0,2.2,1.9,7.31,7.31,0,0,1,1.6,1.4h205V256H160V119.3a26.62,26.62,0,0,1-3.9-.7c-1.4-.4-2.8-.6-4.3-.9-2.6-.6-5.2-1-7.9-1.4v36.6h0v20h0V272h336V64Z"/><path d="M98.4,136H80V31.4l7.5.3a40.31,40.31,0,0,0,19.3-4.2l17.9-9A23.49,23.49,0,0,1,135.5,16H236.1a55.92,55.92,0,0,1,39.6,16.4L306.3,63a45.2,45.2,0,0,0,5.2.2H318a100.92,100.92,0,0,0,11-.1l-42-42A71,71,0,0,0,236.1,0H135.6a41.26,41.26,0,0,0-17.9,4.2l-17.9,9a23.4,23.4,0,0,1-11.6,2.5L80,15.4V0H0V176H80V152H93.6l4.8,3.2a87.46,87.46,0,0,0,45.1,14.6v-16a73.12,73.12,0,0,1-36.2-11.9ZM64,160H16V16H64Z"/><path d="M280.7,142.5a36.22,36.22,0,0,1,3.6-4.2,31.5,31.5,0,0,0,1.6-25.5.35.35,0,0,1-.1-.2c-3.1-6.3-8.6-10.8-12.3-16.7h-.1l-16-16h.2a10.47,10.47,0,0,0-1.1-.8c-.7-.5-1.3-1.2-2-1.8-.8-.8-1.6-1.5-2.4-2.2s-1.5-1.5-2.3-2.2a60.88,60.88,0,0,1-4.4-4.4c-1.4-1.5-2.6-3.1-4-4.6L222,44.5,210.7,55.8l56.5,56.5A16.05,16.05,0,1,1,244.5,135L197.3,87.8l-5.6,4.8a42.38,42.38,0,0,1-53.9.8l-4.6-3.8L123,102.2l4.7,3.8a56.28,56.28,0,0,0,16.2,9.1c2.6.4,5.2.8,7.8,1.4,1.5.3,2.9.6,4.4,1a20.42,20.42,0,0,0,4.3.8c.2,0,.4.1.4.3a58.3,58.3,0,0,0,35.2-9.2l13.1,13.1a29.94,29.94,0,0,1,6.1,5.7,37,37,0,0,0,6.2,6.3.4.4,0,0,1,.2.4l11.6,11.6a32.27,32.27,0,0,0,45.1.2C279.2,145.3,279.8,143.8,280.7,142.5Z"/><path class="cls-1" d="M338.8,137.8a40.65,40.65,0,0,0-53,.1c-1.3,1.9-3.2,3.3-4.4,5.3s-2.2,4.3-3.9,5.8c-.2.2-.4.1-.6,0a40.51,40.51,0,1,0,61.9-11.2ZM312,192a24,24,0,1,1,24-24A23.94,23.94,0,0,1,312,192Z"/></g></g></svg>