<svg xmlns="http://www.w3.org/2000/svg" viewBox="0 0 511.9 372.2"><defs><style>.cls-1{fill:#ffca28;}</style></defs><title>scheme-icon-4</title><g id="Слой_2" data-name="Слой 2"><g id="Capa_1" data-name="Capa 1"><circle class="cls-1" cx="104.7" cy="302.5" r="11.6"/><circle class="cls-1" cx="395.6" cy="302.5" r="11.6"/><path d="M290.9,290.8H173.5a69.8,69.8,0,1,0,0,23.2H290.9a11.61,11.61,0,0,0,11.6-11.6A11.48,11.48,0,0,0,290.9,290.8ZM104.7,349a46.5,46.5,0,1,1,46.5-46.5A46.54,46.54,0,0,1,104.7,349Z"/><path d="M498,181.5l-34.3-25.8L430,54.4a11.59,11.59,0,0,0-11-8H337.5a11.58,11.58,0,0,0-11.1,8.2L274,222.4a14.7,14.7,0,0,1-18.2,9.5l-205-64.6A11.85,11.85,0,0,1,43,159L23.5,81a8.33,8.33,0,0,1-.3-2.2,9.13,9.13,0,0,1,9.1-9.1H253.1A46.22,46.22,0,0,0,286,56.1L312.1,30a23.22,23.22,0,0,1,16.5-6.8H349A11.6,11.6,0,1,0,349,0H328.6a46.22,46.22,0,0,0-32.9,13.6L269.6,39.7a23.47,23.47,0,0,1-16.5,6.8H32.4A32.37,32.37,0,0,0,0,78.8a29.82,29.82,0,0,0,1,7.8l19.5,78a35,35,0,0,0,23.4,24.8l204.8,64.7a36.73,36.73,0,0,0,11.4,1.8,37.78,37.78,0,0,0,36.1-26.5L346,69.7h64.5l27.1,81.5H414.4l3.2-6.4a11.63,11.63,0,0,0-20.8-10.4l-8.4,16.8H349a11.6,11.6,0,1,0,0,23.2H449.9L484,200a11.75,11.75,0,0,1,4.6,9.3v69.8A11.61,11.61,0,0,1,477,290.7H464.3a69.8,69.8,0,1,0,0,23.2H477A35,35,0,0,0,511.9,279V209.2A34.25,34.25,0,0,0,498,181.5ZM395.6,349a46.5,46.5,0,1,1,46.5-46.5A46.54,46.54,0,0,1,395.6,349Z"/><path class="cls-1" d="M93.1,93a11.61,11.61,0,0,0-11.6,11.6v34.9a11.6,11.6,0,1,0,23.2,0V104.6A11.61,11.61,0,0,0,93.1,93Z"/><path class="cls-1" d="M139.6,93A11.61,11.61,0,0,0,128,104.6v46.5a11.6,11.6,0,0,0,23.2,0V104.6A11.48,11.48,0,0,0,139.6,93Z"/><path class="cls-1" d="M186.2,93a11.61,11.61,0,0,0-11.6,11.6v58.2a11.6,11.6,0,0,0,23.2,0V104.6A11.61,11.61,0,0,0,186.2,93Z"/><path class="cls-1" d="M232.7,93a11.61,11.61,0,0,0-11.6,11.6v69.8a11.6,11.6,0,0,0,23.2,0V104.6A11.48,11.48,0,0,0,232.7,93Z"/></g></g></svg>