<svg xmlns="http://www.w3.org/2000/svg" viewBox="0 0 413.2 597"><defs><style>.cls-1{fill:#ffca28;}.cls-2{fill:#fff;}.cls-3{fill:none;stroke:#ffca28;stroke-miterlimit:10;stroke-width:10px;}</style></defs><title>services-icon-1</title><g id="Слой_2" data-name="Слой 2"><g id="Capa_1" data-name="Capa 1"><path class="cls-1" d="M222.8,301.9H195.3a18.1,18.1,0,0,1,0-36.2h48.4a12,12,0,0,0,0-24H221V225a12,12,0,0,0-24,0v16.7h-1.7a42.1,42.1,0,1,0,0,84.2h27.5a18.1,18.1,0,1,1,0,36.2H173.5a12,12,0,1,0,0,24h23.6v17.1a12,12,0,0,0,24,0V386.1h2.3a42.1,42.1,0,0,0-.6-84.2Z"/><path class="cls-2" d="M389.4,274.7a344,344,0,0,0-52-83.4A387.41,387.41,0,0,0,270.8,128l51-94.6a11.84,11.84,0,0,0-2.2-14.2C306.4,6.3,292.4,0,276.8,0,262.5,0,249.4,5.4,238,10.2c-9,3.7-17.5,7.3-24.4,7.3a15.19,15.19,0,0,1-5.7-1C184.1,7.8,165.8,2.4,148.1,2.4c-22.4,0-41.5,9-60.2,28.2a12.07,12.07,0,0,0-1.4,15l55,83.1a393.89,393.89,0,0,0-65.7,62.6c-21.9,26.3-39.4,54.4-52,83.4A283.59,283.59,0,0,0,0,387.9,93.25,93.25,0,0,0,93.1,481h227a93.25,93.25,0,0,0,93.1-93.1A283.59,283.59,0,0,0,389.4,274.7ZM112.1,40.6c11.6-10,22.7-14.4,36-14.4,14.2,0,30.2,4.8,51.5,12.7a40.63,40.63,0,0,0,13.9,2.4c11.7,0,22.9-4.6,33.6-9.1,10.3-4.3,20.1-8.4,29.6-8.4,4.6,0,11.1.8,19.3,6.6l-48,89.2H164.4ZM320.1,457H93.1A69.18,69.18,0,0,1,24,387.9C24,323.8,47.5,263,93.7,207.2a367.08,367.08,0,0,1,67.9-63.6h89.8c9.1,6.3,38.7,28.3,67.9,63.6C365.6,263,389,323.7,389,387.9A68.88,68.88,0,0,1,320.1,457Z"/><line class="cls-3" x1="86.05" y1="532" x2="332.05" y2="532"/><line class="cls-3" x1="149.55" y1="592" x2="268.55" y2="592"/></g></g></svg>