<svg xmlns="http://www.w3.org/2000/svg" viewBox="0 0 507.82 500"><defs><style>.cls-1{fill:#ffca28;}.cls-2{fill:#fff;stroke:#fff;stroke-miterlimit:10;stroke-width:5px;}</style></defs><title>services-icon-3</title><g id="Слой_2" data-name="Слой 2"><g id="Capa_1" data-name="Capa 1"><path class="cls-1" d="M34.5,442a23.5,23.5,0,1,0,35.3-20.3A23.23,23.23,0,0,0,58,418.5,23.47,23.47,0,0,0,34.5,442Zm32,0a8.48,8.48,0,1,1-4.3-7.4A8.61,8.61,0,0,1,66.5,442Z"/><path class="cls-1" d="M122,465.5a23.49,23.49,0,0,0,11.8-43.8,23.23,23.23,0,0,0-11.8-3.2,23.5,23.5,0,0,0,0,47Zm0-32a8.48,8.48,0,0,1,4.2,1.1,8.51,8.51,0,1,1-4.2-1.1Z"/><path class="cls-1" d="M186,465.5a23.49,23.49,0,0,0,11.8-43.8,23.23,23.23,0,0,0-11.8-3.2,23.5,23.5,0,0,0,0,47Zm0-32a8.48,8.48,0,0,1,4.2,1.1,8.51,8.51,0,1,1-4.2-1.1Z"/><path class="cls-1" d="M250,465.5a23.49,23.49,0,0,0,11.8-43.8,23.23,23.23,0,0,0-11.8-3.2,23.5,23.5,0,1,0,0,47Zm0-32a8.48,8.48,0,0,1,4.2,1.1,8.51,8.51,0,1,1-4.2-1.1Z"/><path class="cls-1" d="M66,313.5h8a7.5,7.5,0,0,0,0-15H66a7.5,7.5,0,0,0,0,15Z"/><path class="cls-1" d="M66,337.5h8a7.5,7.5,0,0,0,0-15H66a7.5,7.5,0,0,0,0,15Z"/><path class="cls-2" d="M502.3,262.2,374.8,21.2a31.5,31.5,0,0,0-54.7-5.1h0l-122,162.7a43.61,43.61,0,0,0-5.1-.3H138.1A39.52,39.52,0,0,0,98.6,218v48.5H50A23.47,23.47,0,0,0,26.5,290v56A23.47,23.47,0,0,0,50,369.5h64.5v17H58a55.5,55.5,0,0,0,0,111H250a55.5,55.5,0,1,0,0-111H193.5v-17H258a7.55,7.55,0,0,0,7.5-7.5V337.5H275a.9.9,0,0,0,.5-.1c.1,0,.3-.1.4-.1a.37.37,0,0,0,.3-.1.35.35,0,0,0,.2-.1c.2-.1.3-.1.4-.2h.1a7.46,7.46,0,0,0,1.2-.7c.1-.1.2-.1.3-.2s.2-.1.3-.2l.3-.3c.1-.1.2-.1.2-.2l.2-.2.3-.3.1-.1a2.18,2.18,0,0,0,.3-.5c0-.1.1-.1.1-.2a.76.76,0,0,0,.2-.4,7.32,7.32,0,0,0,.8-2.5c0-.3.1-.7.1-1V301.5a71.79,71.79,0,0,0-12-39.7L257.4,244l82.4-138.3L461.5,286a23.77,23.77,0,0,0,12.8,10.5v12.4l-2.2-5.4a7.64,7.64,0,0,0-4-4.1,7.5,7.5,0,0,0-5.7-.1L359.9,340.5l-17.7-14.6a7.53,7.53,0,0,0-9.6,11.6L388,383.1a55.46,55.46,0,0,0,56,8.7l25.5-10.3A31.56,31.56,0,0,0,489,356.1a5.82,5.82,0,0,0,.3-1.9V296.5a23.47,23.47,0,0,0,16-22.3A21.89,21.89,0,0,0,502.3,262.2ZM98.5,354.5H50a8.49,8.49,0,0,1-8.5-8.5V290a8.49,8.49,0,0,1,8.5-8.5H98.5Zm365.6,12.9-25.5,10.3a40.69,40.69,0,0,1-40.9-6.3l-24.5-20.2,87.9-35.3,12.1,30.2A16.23,16.23,0,0,1,464.1,367.4ZM346,17.5a16.48,16.48,0,0,1,14.4,8.4,3.55,3.55,0,0,0,.4.9l.5.9a16.08,16.08,0,0,1,1.2,6.3,16.48,16.48,0,0,1-2.4,8.5c0,.1-.1.1-.1.2l-.3.5A16.47,16.47,0,1,1,346,17.5Zm-96,384a40.5,40.5,0,1,1,0,81H58a40.5,40.5,0,0,1,0-81Zm-120.5-15v-17h49v17Zm121-32h-137V274h0V218a24.47,24.47,0,0,1,17-23.3V302.4a22.86,22.86,0,0,0,13.4,20.7,166.07,166.07,0,0,0,68,14.4h38.6Zm16-53.1v21.1H211.9a154.25,154.25,0,0,1-26.4-2.3V218a7.5,7.5,0,0,0-15,0v98.8a152.08,152.08,0,0,1-20.5-7.4,7.58,7.58,0,0,1-4.5-6.9v-109h47.4a24.62,24.62,0,0,1,20.4,10.9L257.1,270A57.25,57.25,0,0,1,266.5,301.4Zm-18.1-71.3-22.6-34A41,41,0,0,0,213,184L316.7,45.6A31.58,31.58,0,0,0,346,65.5h.4Zm214.3,30.5L348.5,91.3l24-40.3a8.79,8.79,0,0,0,.6-1L479.3,250.6A24,24,0,0,0,462.7,260.6ZM482,282.5a8.5,8.5,0,1,1,8.5-8.5A8.49,8.49,0,0,1,482,282.5Z"/></g></g></svg>