<svg xmlns="http://www.w3.org/2000/svg" viewBox="0 0 503.56 512"><defs><style>.cls-1{fill:#ffca28;}</style></defs><title>weight</title><g id="Слой_2" data-name="Слой 2"><g id="Слой_1-2" data-name="Слой 1"><path class="cls-1" d="M502.94,468,446.71,158.66A37.29,37.29,0,0,0,410,128H93.58a37.33,37.33,0,0,0-36.74,30.66L.61,468a37.33,37.33,0,0,0,36.74,44H466.23a37.31,37.31,0,0,0,36.71-44ZM226.08,401.66a16,16,0,0,1-22.63.62l-47.66-45.1v32.15a16,16,0,1,1-32,0V250.67a16,16,0,0,1,32,0v32.64l47.79-44.37a16,16,0,1,1,21.76,23.47l-62.17,57.73,62.27,58.92a16,16,0,0,1,.64,22.61ZM379.79,293.33a16,16,0,1,1-32,0V288a21.33,21.33,0,0,0-42.67,0v64a21.33,21.33,0,1,0,42.67,0h-16a16,16,0,0,1,0-32h32a16,16,0,0,1,16,16v16a53.33,53.33,0,1,1-106.67,0V288a53.33,53.33,0,1,1,106.67,0Z"/><path class="cls-1" d="M251.79,160a80,80,0,1,1,80-80A80.08,80.08,0,0,1,251.79,160Zm0-117.33A37.33,37.33,0,1,0,289.12,80,37.37,37.37,0,0,0,251.79,42.67Z"/></g></g></svg>